<svg width="411" height="331" viewBox="0 0 411 331" fill="none" xmlns="http://www.w3.org/2000/svg">
<path d="M77.4575 260.559C79.4809 261.117 79.4809 261.117 81.4575 262.559C82.6679 265 83.6768 267.338 84.645 269.871C92.1204 288.015 103.758 300.013 121.688 307.824C134.352 313.083 148.949 311.469 161.457 306.559C179.028 298.556 189.283 284.028 196 266.527C197.509 263.454 198.488 262.191 201.457 260.559C205.383 260.059 207.58 260.016 210.977 262.117C213.994 265.086 215.246 268.182 216.707 272.059C224.087 290.112 236.759 301.115 254.457 308.559C266.566 313.13 280.695 311.146 292.457 306.559C308.281 299.153 318.258 285.983 325.457 270.559C329.081 262.81 329.081 262.81 332.457 260.559C336.432 260.117 338.637 260.026 342.032 262.231C344.722 264.813 345.64 266.7 346.895 270.184C353.238 286.366 364.039 298.954 379.825 306.461C387.08 309.486 394.216 310.87 402.047 311.25C404.643 311.582 406.26 312.149 408.457 313.559C410.933 317.272 411.211 320.257 410.457 324.559C408.77 327.559 408.77 327.559 405.457 329.559C389.29 332.273 371.655 325.471 358.457 316.559C351.296 311.136 345.109 304.517 339.457 297.559C338.653 296.569 337.849 295.579 337.02 294.559C336.504 293.899 335.989 293.239 335.457 292.559C335.164 293.069 334.87 293.58 334.567 294.106C324.43 310.534 308.767 321.87 290.457 327.559C289.676 327.804 288.895 328.049 288.09 328.301C268.496 333.25 248.362 328.433 231.213 318.628C226.928 316.018 223.148 312.941 219.457 309.559C218.826 308.995 218.194 308.432 217.543 307.852C212.726 303.321 209.097 298.056 205.457 292.559C204.674 293.558 204.674 293.558 203.875 294.578C190.341 311.525 174.605 325.565 152.426 329.274C130.354 331.394 110.199 327.096 92.52 313.184C85.5941 307.144 79.2298 300.443 74.4575 292.559C73.9612 293.188 73.4649 293.817 72.9536 294.465C70.8028 297.175 68.6318 299.868 66.4575 302.559C65.8954 303.273 65.3334 303.987 64.7543 304.723C52.4999 319.654 33.6228 327.874 14.7309 329.973C9.6847 330.189 6.51967 330.2 2.14496 327.559C-0.202453 323.386 -0.221764 321.313 0.457456 316.559C2.32761 314.127 3.73884 312.918 6.45746 311.559C8.726 311.289 10.9974 311.043 13.27 310.809C25.2062 309.353 35.0431 305.052 44.4575 297.559C45.9483 296.391 45.9483 296.391 47.4692 295.199C55.667 287.955 60.5253 278.013 64.8066 268.12C67.7833 261.343 70.0956 260.042 77.4575 260.559Z" fill="white"/>
<path d="M79.4577 131.031C82.5472 134.307 84.2163 137.463 85.7702 141.656C92.4794 158.246 103.507 169.369 119.458 177.031C132.845 182.619 147.384 181.83 160.794 176.773C179.236 168.097 188.446 154.133 196.645 136.281C198.604 132.769 199.68 131.38 203.458 130.031C207.758 130.207 210.32 131.119 213.458 134.031C214.661 136.746 214.661 136.746 215.708 139.969C221.279 155.21 231.903 167.731 246.458 175.031C247.213 175.421 247.968 175.81 248.747 176.211C261.567 182.085 275.173 181.939 288.458 178.031C306.304 171.25 316.771 158.415 324.696 141.668C329.192 132.236 329.192 132.236 334.458 130.031C337.933 130.102 339.764 130.463 342.466 132.676C344.863 135.511 345.938 138.195 347.27 141.656C349.884 148.124 353.152 153.553 357.458 159.031C358.163 159.983 358.163 159.983 358.883 160.953C362.927 166.101 367.936 169.587 373.458 173.031C374.599 173.747 374.599 173.747 375.762 174.477C383.211 178.665 391.142 179.673 399.458 181.031C406.566 182.307 406.566 182.307 409.458 184.656C410.935 188.164 411.126 191.288 410.458 195.031C408.39 198.392 406.892 198.919 403.083 199.906C384.113 201.352 365.268 192.558 351.151 180.526C345.407 175.371 340.885 169.318 336.458 163.031C333.604 165.778 331.164 168.63 328.77 171.781C316.724 186.883 300.165 196.36 281.083 199.406C262.13 201.425 242.251 197.765 226.88 185.803C207.639 169.771 207.639 169.771 206.458 162.031C203.624 164.759 201.204 167.585 198.833 170.719C186.443 186.258 169.754 196.265 150.083 199.406C129.811 201.566 111.375 197.012 94.8952 184.781C87.5133 178.791 80.5163 172.125 75.4577 164.031C75.4577 163.371 75.4577 162.711 75.4577 162.031C72.7653 164.63 70.434 167.277 68.2077 170.281C57.9346 183.517 45.3798 191.911 29.4577 197.031C28.4194 197.381 28.4194 197.381 27.36 197.738C20.6087 199.731 11.0821 201.795 4.65691 198.668C2.45769 197.031 2.45769 197.031 0.457694 195.031C-0.338049 188.097 -0.338049 188.097 2.44988 184.363C6.3133 181.368 9.26705 181.039 14.0202 180.531C31.3469 178.121 44.7755 170.005 55.4577 156.031C59.6779 149.713 63.0377 143.266 65.5358 136.09C66.5509 133.823 67.5384 132.594 69.4577 131.031C73.2912 129.753 75.545 130.07 79.4577 131.031Z" fill="white"/>
<path d="M76.4225 0C79.4444 0.684443 80.5295 2.06254 82.4576 4.46094C83.9146 7.5625 83.9146 7.5625 85.2701 11.0859C87.8886 17.5543 91.1273 22.9956 95.4576 28.4609C96.0016 29.1686 96.5456 29.8763 97.106 30.6055C105.639 41.081 118.92 48.938 132.458 50.4609C147.319 51.4612 161.204 48.6094 173.188 39.3516C175.711 37.1379 178.097 34.8461 180.458 32.4609C181.083 31.8693 181.708 31.2776 182.352 30.668C189.267 23.5971 192.927 13.9685 197.004 5.09375C198.458 2.46094 198.458 2.46094 201.458 0.460938C204.545 0.0625264 206.501 -0.166446 209.458 0.460938C213.432 3.78856 214.841 7.24532 216.708 12.0234C223.576 29.2695 235.902 40.4134 252.684 47.7261C265.443 53.0115 279.86 51.1448 292.45 46.3125C309.363 38.7126 318.935 24.4409 326.547 8.125C329.163 2.65749 329.163 2.65749 332.458 0.460938C336.432 0.0193505 338.637 -0.0720441 342.032 2.13281C344.722 4.71483 345.641 6.60257 346.895 10.0859C353.325 26.4897 364.062 38.6171 380.02 46.2734C386.533 49.0632 392.671 50.3476 399.708 50.8984C403.648 51.2416 406.3 51.9142 409.458 54.4609C411.08 57.7047 411.001 60.9552 410.458 64.4609C408.77 67.4609 408.77 67.4609 405.458 69.4609C388.894 72.2053 370.946 64.6385 357.512 55.4453C355.059 53.5393 352.745 51.563 350.458 49.4609C349.741 48.8125 349.024 48.1641 348.286 47.4961C343.518 42.9708 339.88 38.0607 336.458 32.4609C335.906 33.1648 335.354 33.8686 334.786 34.5938C330.583 39.7697 326.047 44.6289 321.458 49.4609C320.831 50.1274 320.205 50.7938 319.559 51.4805C306.03 64.5501 286.541 70.1812 268.122 69.9299C246.575 69.0316 228.013 58.9666 213.52 43.2734C210.517 39.8241 207.825 36.3719 205.458 32.4609C204.924 33.139 204.39 33.817 203.84 34.5156C190.07 51.7172 174.201 65.7896 151.583 69.1758C129.785 71.1649 109.986 66.83 92.5201 53.0859C85.5943 47.0467 79.23 40.3457 74.4576 32.4609C73.6958 33.4219 73.6958 33.4219 72.9185 34.4023C71.4817 36.2078 70.0386 38.0083 68.5904 39.8047C67.3803 41.3117 66.18 42.8271 65.0123 44.3672C55.0949 56.9569 38.8814 65.1987 23.4576 68.4609C22.4882 68.6878 21.5189 68.9147 20.5201 69.1484C7.1644 70.5113 7.1644 70.5113 2.20761 67.4609C-0.225272 63.2903 -0.226635 61.2507 0.457613 56.4609C2.32776 54.0297 3.739 52.8202 6.45761 51.4609C8.72616 51.1909 10.9976 50.945 13.2701 50.7109C25.2383 49.2515 34.9859 44.9149 44.4576 37.4609C45.2839 36.8422 46.1102 36.2234 46.9615 35.5859C54.5351 29.1383 59.3059 20.4817 63.1686 11.4688C67.9294 0.360012 67.9294 0.360012 76.4225 0Z" fill="white"/>
</svg>
