<svg width="512" height="512" viewBox="0 0 512 512" fill="none" xmlns="http://www.w3.org/2000/svg">
<g clip-path="url(#clip0_1739_327)">
<path d="M478.766 91.2696C494.729 105.07 504.945 122.609 510 143C510.186 143.735 510.371 144.47 510.562 145.228C514.427 162.21 513.456 181.489 508 198C507.439 199.729 507.439 199.729 506.867 201.492C502.632 213.413 496.143 223.402 488 233C487.482 233.664 486.964 234.328 486.43 235.012C471.256 253.807 447.023 264.639 423.445 267.287C414.714 268.09 406.024 268.146 397.267 268.141C395.595 268.143 393.923 268.146 392.251 268.15C387.686 268.158 383.12 268.159 378.555 268.16C373.62 268.162 368.685 268.17 363.751 268.176C352.979 268.19 342.207 268.196 331.435 268.2C324.707 268.203 317.98 268.207 311.253 268.212C292.619 268.224 273.986 268.234 255.352 268.238C253.566 268.238 253.566 268.238 251.744 268.238C250.55 268.239 249.357 268.239 248.127 268.239C245.709 268.239 243.29 268.24 240.872 268.24C239.073 268.241 239.073 268.241 237.237 268.241C217.772 268.245 198.306 268.262 178.841 268.286C158.847 268.309 138.854 268.322 118.86 268.323C107.637 268.324 96.415 268.33 85.1926 268.348C75.6443 268.363 66.0961 268.368 56.5478 268.36C51.6761 268.356 46.8045 268.357 41.9327 268.371C37.4738 268.384 33.0152 268.383 28.5563 268.371C26.9428 268.369 25.3293 268.372 23.7159 268.38C21.5227 268.392 19.3304 268.384 17.1373 268.372C15.9192 268.373 14.7011 268.373 13.4461 268.374C8.67352 267.856 4.59375 266.571 1.09383 263.121C-0.92197 259.212 -0.739628 255.266 8.35061e-05 251C2.8199 247.133 5.51114 245.447 10.0001 244C13.252 243.75 13.252 243.75 17.0234 243.75C18.0713 243.745 18.0713 243.745 19.1403 243.741C21.4868 243.734 23.833 243.741 26.1795 243.749C27.8767 243.746 29.5738 243.743 31.271 243.74C35.9396 243.732 40.6082 243.736 45.2768 243.742C50.3104 243.747 55.3441 243.74 60.3777 243.734C69.1039 243.725 77.83 243.723 86.5562 243.726C99.1891 243.729 111.822 243.717 124.455 243.701C144.972 243.675 165.489 243.655 186.006 243.642C187.234 243.641 188.463 243.64 189.728 243.639C207.145 243.628 224.561 243.623 241.977 243.62C243.203 243.62 244.428 243.619 245.691 243.619C247.526 243.619 247.526 243.619 249.399 243.619C269.827 243.615 290.254 243.596 310.681 243.564C323.277 243.545 335.871 243.539 348.467 243.55C357.105 243.556 365.744 243.548 374.383 243.529C379.363 243.518 384.343 243.514 389.323 243.527C393.891 243.54 398.458 243.533 403.026 243.512C404.67 243.508 406.314 243.51 407.958 243.52C421.574 243.597 434.167 241.698 446.375 235.188C447.042 234.841 447.709 234.495 448.397 234.139C453.742 231.292 458.509 228.081 463 224C463.745 223.347 464.49 222.693 465.258 222.02C478.793 209.425 487.295 190.722 488.32 172.293C489.079 149.703 482.026 130.028 466.563 113.375C465.717 112.591 464.871 111.808 464 111C463.428 110.457 462.855 109.915 462.266 109.356C445.455 93.9237 424.85 89.9391 402.753 90.8136C386.114 91.9411 369.94 100.686 358 112C357.296 112.663 356.592 113.325 355.867 114.008C342.425 127.872 336.995 145.604 335.301 164.399C334.812 168.941 334.48 171.385 331.613 175.063C328.357 177.477 326.026 178.445 322 179C317.407 177.622 314.387 176.243 312 172C307.18 157.541 314.227 138.277 320 125C320.379 124.102 320.758 123.203 321.149 122.277C331.821 99.0033 352.597 81.4159 376.172 72.1461C412.232 59.3557 449.541 67.2875 478.766 91.2696Z" fill="white"/>
<path d="M15.6146 310.745C16.5961 310.741 16.5961 310.741 17.5975 310.736C19.7937 310.727 21.9896 310.733 24.1857 310.739C25.7749 310.736 27.3641 310.732 28.9534 310.728C33.3236 310.717 37.6938 310.72 42.064 310.724C46.7766 310.726 51.4892 310.717 56.2018 310.71C65.4382 310.697 74.6745 310.695 83.9109 310.698C91.4226 310.699 98.9342 310.698 106.446 310.693C108.049 310.692 108.049 310.692 109.685 310.692C111.856 310.69 114.027 310.689 116.198 310.688C136.575 310.677 156.952 310.679 177.329 310.685C195.951 310.69 214.573 310.679 233.195 310.66C252.324 310.641 271.453 310.633 290.582 310.636C301.318 310.638 312.054 310.636 322.79 310.622C331.937 310.61 341.083 310.608 350.229 310.62C354.892 310.626 359.554 310.627 364.216 310.615C368.494 310.604 372.772 310.608 377.05 310.622C378.588 310.624 380.126 310.622 381.664 310.614C406.218 310.494 427.011 316.803 445 334C445.628 334.553 446.256 335.106 446.902 335.676C460.356 347.97 467.303 367.351 468.285 385.207C468.946 405.743 462.957 424.092 450 440C449.532 440.63 449.064 441.261 448.582 441.91C437.736 455.873 418.783 464.706 401.691 467.551C380.346 470.148 358.783 465.676 341.652 452.281C324.312 437.367 313.009 419.152 311 396C310.929 395.229 310.858 394.458 310.785 393.664C310.553 388.804 311.543 385.178 314 381C318.194 377.805 321.714 377.739 326.754 378.09C330.219 379.494 332.207 381.817 334 385C334.863 388.011 335.184 391.014 335.5 394.125C337.599 410.197 344.301 423.291 356.953 433.59C368.529 442.015 383.155 445.531 397.266 443.539C412.879 440.616 425.528 433.255 434.695 420.074C442.889 407.047 445.644 393.266 442.875 378.187C439.507 363.803 431.598 351.435 418.938 343.5C417.311 342.63 415.665 341.795 414 341C413.211 340.613 412.422 340.227 411.609 339.828C399.979 334.651 387.359 334.708 374.854 334.755C373.259 334.754 371.663 334.751 370.067 334.748C365.717 334.742 361.366 334.748 357.015 334.757C352.311 334.763 347.606 334.758 342.901 334.754C334.76 334.749 326.619 334.751 318.478 334.756C305.613 334.764 292.749 334.753 279.884 334.739C275.478 334.734 271.073 334.73 266.667 334.725C265.567 334.724 264.466 334.723 263.332 334.722C250.823 334.71 238.314 334.702 225.804 334.696C224.662 334.696 223.519 334.695 222.341 334.695C203.79 334.686 185.239 334.69 166.687 334.696C147.631 334.701 128.575 334.688 109.52 334.658C97.7684 334.641 86.0175 334.639 74.2663 334.658C66.2237 334.669 58.1812 334.663 50.1386 334.642C45.4958 334.631 40.8534 334.628 36.2107 334.646C31.9634 334.663 27.7167 334.657 23.4695 334.633C21.9307 334.628 20.392 334.632 18.8533 334.645C16.7653 334.661 14.6796 334.647 12.5917 334.625C11.4311 334.625 10.2705 334.625 9.07477 334.625C5.08464 333.814 3.59805 332.048 1.0001 329C0.6701 328.67 0.3401 328.34 9.97186e-05 328C-0.540512 323.214 -0.703246 319.25 1.6876 315C6.03795 311.237 9.97 310.75 15.6146 310.745Z" fill="white"/>
<path d="M246.375 58.3125C265.907 74.0118 275.851 92.2015 279 117C280.648 135.538 274.574 155.541 263.188 170.188C261.812 171.809 260.416 173.414 259 175C258.334 175.761 257.667 176.521 256.98 177.305C242.817 192.493 222.993 200.331 202.404 201.277C197.304 201.423 192.205 201.406 187.103 201.388C185.16 201.392 183.216 201.398 181.273 201.404C176.046 201.418 170.82 201.413 165.593 201.403C160.106 201.395 154.618 201.402 149.13 201.407C139.929 201.413 130.729 201.405 121.528 201.391C110.896 201.375 100.265 201.38 89.6331 201.397C80.4828 201.41 71.3326 201.412 62.1824 201.404C56.7263 201.4 51.2702 201.399 45.8142 201.409C40.6938 201.418 35.5738 201.412 30.4535 201.394C28.5757 201.39 26.698 201.391 24.8203 201.398C22.2568 201.406 19.6941 201.396 17.1307 201.381C16.3887 201.388 15.6467 201.394 14.8822 201.401C9.32181 201.338 5.10421 200.144 1.15627 196.121C-0.951197 192.255 -0.765323 188.261 2.16961e-05 184C2.43752 180.938 2.43752 180.938 5.00002 179C5.33002 178.67 5.66002 178.34 6.00002 178C8.50006 177.894 10.9729 177.854 13.4737 177.855C14.2658 177.852 15.0578 177.848 15.8739 177.845C18.5491 177.834 21.2242 177.83 23.8994 177.826C25.8095 177.82 27.7196 177.813 29.6296 177.806C33.7554 177.791 37.8811 177.78 42.0068 177.77C48.5382 177.755 55.0696 177.731 61.601 177.705C80.1787 177.634 98.7563 177.575 117.334 177.523C127.585 177.495 137.836 177.459 148.087 177.417C154.571 177.39 161.054 177.372 167.538 177.361C171.589 177.351 175.641 177.334 179.693 177.314C181.562 177.307 183.43 177.303 185.298 177.302C206.452 177.293 223.67 174.928 239.996 160.199C251.488 148.247 254.621 133.137 254.309 117.18C253.73 103.822 246.933 90.7918 237.148 81.7383C228.289 74.5702 216.497 68.6634 205 68C204.365 67.9498 203.729 67.8995 203.074 67.8477C188.955 67.2024 175.311 72.1316 164.688 81.3125C153.188 92.3699 147.932 103.532 146.163 119.326C145.506 124.623 144.364 127.818 141 132C137.585 134.59 134.167 134.431 130 134C125.989 131.881 123.634 130.231 122 126C119.589 107.078 127.616 88.0068 138.75 73.125C151.268 57.2887 168.692 47.7865 188.406 44.418C209.073 42.0143 229.376 46.015 246.375 58.3125Z" fill="white"/>
</g>
<defs>
<clipPath id="clip0_1739_327">
<rect width="512" height="512" fill="white"/>
</clipPath>
</defs>
</svg>
